/* XPM */
static char *dummy[]={
"32 16 14 1",
"b c #000000",
"f c #00ff00",
"i c #112288",
". c #151515",
"l c #448800",
"c c #555555",
"k c #666666",
"j c #66cc00",
"d c #777777",
"e c #825106",
"h c #887888",
"# c #999999",
"g c #face8d",
"a c #ff0000",
".........######.aa....aabbbbbbbb",
"........cdddddd#a......abbbbbb#b",
"........cdddddd#........bbbbbbbb",
"........cdddddd#...aa...bb#bbbbb",
"........cdddddd#...aa...bbbbbbbb",
"........cdddddd#........bbbbbbbb",
"........cdddddd#a......abbbbb#bb",
".........cccccc.aa....aabbbbbbbb",
".eeeee..aeeeeeaa........ff....ff",
".eggge..aeggge.a.hhiihh.fhhiihhf",
".gbgbg...gbgbg...h.ii.h..h.ii.h.",
"..ggg.....ggg....iiccii..iiccii.",
"jjjjjjj.jjjjjjj..iiccii..iiccii.",
"gjjjjjg.gjjjjjg..h.ii.h..h.ii.h.",
"gkbkbkg.gkbkbkga.hhiihh.fhhiihhf",
".ll.ll..all.llaa........ff....ff"};
