/* XPM */
static const char *sokoban[] = {
/* columns rows colors chars-per-pixel */
"64 144 39 1 ",
"  c #000000",
". c #010101",
"X c #110000",
"o c #100500",
"O c #111111",
"+ c #200900",
"@ c #201000",
"# c #221100",
"$ c #331100",
"% c #301700",
"& c #002200",
"* c #003300",
"= c #222222",
"- c #252525",
"; c #333333",
": c #440000",
"> c #441100",
", c #004a00",
"< c #3f3f3f",
"1 c #414141",
"2 c #444444",
"3 c #484848",
"4 c #515151",
"5 c #555555",
"6 c #565656",
"7 c #595959",
"8 c #5f5f5f",
"9 c #777777",
"0 c #990000",
"q c #ff0000",
"w c #885533",
"e c #039900",
"r c #05b000",
"t c #22ff22",
"y c #ff8800",
"u c #ffff00",
"i c #ffcc88",
"p c #ffffff",
"a c None",
/* pixels */
"24=2========422224=2========422224=2========422224=2========4222",
"2;===242424=;;222;===242424=;;222;===2424=;;;;222;====42424=;;22",
"=====422224========2=222222=======42===22=========424=22222=====",
"===4=;22;2;===22==22=;2222;=4422==2224=424=42224==222=;222;=44=2",
"==42==============22=2;;;22=4222==;;22=222========222=;;2;2=24==",
"2=22==44==424==22===========422;;======224=244=44===========22=2",
"==2;==222=222=22===4242=424=22;;==424=4222=224=2==44242=424=;2=;",
"==========222======4224=222=======222=2;2;=;22====22;2;=2;2=====",
"===244=24=====4====2222=2;2=424==========;==================424=",
"44=222=22=22=42=44=2;;2=;;;=222=44242244====444=44=24=42424=222=",
"22=22;=======22=22==============22222222=44=;2;=22=22=;2;22=;;2=",
"22=2;;===424=;;=22=44=42=44422;=;222;;22=44=====22==============",
"2;=======222====2;=22=22=42222==2;2;;2;;=42222==2;=422424=4244==",
"=====424=;;;=2=====2;=2;=22;;;===========2;;2;=====;;;222=;;22==",
"===2=222===========;===============4=222===========;============",
"44=2=222=22=424244===422=22=424244=2=2;;=22=424244===222=22=4242",
" oo ooooooo ooo  oo ooooo ooooo  oo ooooooo ooo  oo ooooooo ooo ",
"o>>o#%>>>%#o#%#oo>>o#%>>>o###%#oo>>o#%>$4;;4;4$oo>>o#%q>>%#o#%#o",
"o$$o>$$$$$>o>$>oo$$o>$$$$o>$>$>oo$$o>$;;4$$4;$4oo$$o>$$$$$>o>$>o",
"o$$o$$$$$$$o$$$oo$$o$$$$$o$$$$$oo$$o$$$$$4$;4$2oo$$o$$$qq$$o$$$o",
"o++o+@+++#+o+@+oo++o+#+++o+$+#+oo++o+@+++$4$$44oo++o+#qyqq+o+@+o",
" oo ooo ooo ooo  oo  oooo ooooo  oo ooooo;4 o2o  oo oqqyyqq ooo ",
"o#%>%%#o#>%>>%#oo#%>o%#$#>%>>%#oo#%>%%#$;o%4$2#oo#%>%qyuuyq>>%#o",
"o>$$$$>o>$$$$$>oo>$$o$>$>$$$$$>oo>$$$$>$>o$$444oo>$$$qqyyqq$$$>o",
"o$$$$$$o$$$$$$$oo$$$o$$$$$$$$$$oo$$$$$$$$o$$2$$oo$$$$$qqqq$$$$$o",
"o+++#@+o++#++@+oo+++o@++++#++@+oo+++@#+++o@++@+oo+++#@+  +#++@+o",
" o oooo o ooooo  o o oooooo ooo  o oooo o ooooo  o ooo;;;;ooooo ",
"X>o#>%%%#o#%>%#oX>o#>%%%###o>%#oX>o#>%%o#$#%>%#oX>o#>%%  o#%>%#o",
"o$o>$$$$>o>$$$>oo$o>$$$$>$>o$$>oo$o>$$$o>$>$$$>oo$o>$$$  o>$$$>o",
"o$o$$$$$$o$$$$$oo$o$$$$$$$$o$$$oo$o$$$$o$$$$$$$oo$o$$$$$$o$$$$$o",
"o+o+++#@+o+@#++oo+o+++@@+++o#++oo+o+++@o+$+##++oo+o+++#@+o+@#++o",
" o oooooo ooooo  o oooooooo ooo  o oooo ooooooo  o oooooo ooooo ",
";545454457646489;547454457747489;545454457745489;547454457547489",
"=222222222222228=222222222222228=222222222222228=222222222222228",
"-232232223212224-231112232212224-22223222231;;24-222222321211224",
"=222212122221226=222212222212225=221222122231;27=221112222221227",
"=212121112222227=211222321232227=222122221222127=221221222222217",
"-222222221232214-221322;22222214-232222322212;14-222322212232214",
"-212123232222318-222222122212228-222221223222128-223222212222328",
"=222221223112327-222121221222225=221221222222225=22322;222222227",
"-232222222123124-232212222122;24-222123221222324-22211-122123124",
"=2223<<212222125=222212132223125=222222221222225-22-;-;222212225",
"-232222211232228-223222222222;28-222221223212228-21;--3221312228",
"=222232222222224=222232222232;24=211232222222224-3;;-;1122122224",
"-212321212321225-21222221232;;35-222221232322125-21-;13222222325",
"=223222322223225=2222232231;1;35=222221322222225=2;-;32322223225",
"=222222222222225=222222222222225=222222222222225=222332222222225",
"O--=--==-==-=-=;O--=--==-==-=-=;O--=--==-==-=-=;O-----==-==-=-=;",
"=     O  O   O O=     O  O   O O=     O      O O=     =  =     O",
"   =     = O       O   = = O                       O=           ",
"        O    O          O    O       =  O    O          O    O  ",
"=O O      O     =O O  O      =  =O O      O     =  =            ",
" =   =      =  O =     O=   =  O =    O        O     O = O =    ",
"         O            =  O               O O           O    =   ",
"   =   =            O       =      O   =       =  O     = O   = ",
"  =  O      O=    =O O    O O     O  O      O       =           ",
"   O      =        O   O O            O   =        O       = O  ",
"      OO=     O       O    O  O     O         O       O O       ",
"=       OO      =      O O      =      O O  =   =               ",
"  O O      = O=   O OO       O=   O   O    =  =   O   =   O  =  ",
"  =    OO     O   =    OO     O   =     O           O           ",
"    O=    O         O=   =O          O    O       =     = O     ",
" O      =   O  O O      =   O  O O      =   O  O      =        O",
"                                                                ",
"aaaaaaa..aaaaaaaaaaaaa....aaaaaaaaaaaaa..aaaaaaaaaaaaa....aaaaaa",
"aaaaaa.OO.aaaaaaaaaaa.OOOO.aaaaaaaaaaa.OO.aaaaaaaaaaa.OOOO.aaaaa",
"aaaaa.OOOO.aaaaaaaaaa.OOOOO.aaaaaaaaa.OOOO.aaaaaaaaa.OOOOO.aaaaa",
"aaaa.OO..OO.aaaaaaaaa.OOOOO.aaaaaaaa.OOOOOO.aaaaaaaa.OOOOO.aaaaa",
"aaaa.O.ww.O.aaaaaaaaaa.OOOO.aaaaaaaa.OOOOOO.aaaaaaaa.OOOO.aaaaaa",
"aaa.O.wwww.O.aaaaaaaaa.OO..aaaaaaaa.OOOOOOOO.aaaaaaaa..OO.aaaaaa",
"aaa.O.iiii.O.aaaaaaaaa...O.aaaaaaaa.O.OOOO.O.aaaaaaaa.O...aaaaaa",
"aa.O.O....O.O.aaaaaaa.OOOOO.aaaaaa.O.O....O.O.aaaaaa.OOOOO.aaaaa",
"aa.O.OOO;OO.O.aaaaaaa.O.O.O.aaaaaa.O.OOOOOO.O.aaaaaa.O.O.O.aaaaa",
"a.OO.OO;OOO.OO.aaaaa.OO.O.O.aaaaa.OO.OOOOOO.OO.aaaaa.O.O.OO.aaaa",
"a.O.OOOO;OOO.O.aaaaa.O.O.OOO.aaaa.O.OOOOOOOO.O.aaaa.OOO.O.O.aaaa",
"aa..OOO;OOOO..aaaaaa.O.O.OOO.aaaaa..OOOOOOOO..aaaaa.OOO.O.O.aaaa",
"aaa.OOOO;OOO.aaaaaa.OOO.OOOO.aaaaaa.OOOOOOOO.aaaaaa.OOOO.OOO.aaa",
"aa.OOOO;OOOOO.aaaaa.OOOOOOOOO.aaaa.OOOOOOOOOO.aaaa.OOOOOOOOO.aaa",
"aa.OOOOO;OOOO.aaaaa.OOOOOOOOO.aaaa.OOOOOOOOOO.aaaa.OOOOOOOOO.aaa",
"aaa..........aaaaaaa.........aaaaaa..........aaaaaa.........aaaa",
"aaaaaaa..aaaaaaaaaaaaa....aaaaaaaaaaaaa..aaaaaaaaaaaaa....aaaaaa",
"aaaaaa.OO.aaaaaaaaaaa.OOOO.aaaaaaaaaaa.OO.aaaaaaaaaaa.OOOO.aaaaa",
"aaaaa.OOOO.aaaaaaaaaa.OOOOO.aaaaaaaaa.OOOO.aaaaaaaaa.OOOOO.aaaaa",
"aaaa.OO..OO.aaaaaaaaa.OOOOO.aaaaaaaa.OOOOOO.aaaaaaaa.OOOOO.aaaaa",
"aaaa.O.ww.O.aaaaaaaaaa.OOOO.aaaaaaaa.OOOOOO.aaaaaaaa.OOOO.aaaaaa",
"aaa.O.wwww.O.aaaaaaaaa.OO..aaaaaaaa.OOOOOOOO.aaaaaaaa..OO.aaaaaa",
"aaa.O.iiii.O.aaaaaaaaa...O.aaaaaaaa.O.OOOO.O.aaaaaaaa.O...aaaaaa",
"aa.O.O....O.O.aaaaaaa.OOOOO.aaaaaa.O.O....O.O.aaaaaa.OOOOO.aaaaa",
"aa.O.OOO;OO.O.aaaaaaa.O.O.O.aaaaaa.O.OOOOOO.O.aaaaaa.O.O.O.aaaaa",
"a.OO.OO;OOO.OO.aaaaa.OO.O.O.aaaaa.OO.OOOOOO.OO.aaaaa.O.O.OO.aaaa",
"a.O.OOOO;OOO.O.aaaaa.O.O.OOO.aaaa.O.OOOOOOOO.O.aaaa.OOO.O.O aaaa",
"aa..OOO;OOOO..aaaaaa.O.O.OOO.aaaaa..OOOOOOOO..aaaaa.OOO.O.O aaaa",
"aaa.OOOO;OOO.aaaaaa.OOO.OOOO.aaaaaa.OOOOOOOO.aaaaaa.OOOO.OOO aaa",
"aa.OOOO;OOOOO.aaaaa.OOOOOOOOO.aaaa.OOOOOOOOOO.aaaa.OOOOOOOOO aaa",
"aa.OOOOO;OOOO.aaaaa.OOOOOOOOO.aaaa.OOOOOOOOOO.aaaa.OOOOOOOOO aaa",
"aaa..........aaaaaaa.........aaaaaa..........aaaaaa.........aaaa",
"aaaaaaaaaaaaaaaaaaaaaaaaaaaaaaaaaaaaaaaaaaaaaaaaaaaaaaaaaaaaaaaa",
"aaaaaaaaaaaaaaaaaaaaaa&aa&aaaaaaaaaaaaaaaaaaaaaaaaaaaaaaaaaaaaaa",
"aaaaaa&a&&aaaaaaaaaaa&a&aaaaaaaaaaaaaaaaaaaaaaaaaaaaaa&&aaaaaaaa",
"aaaa&aa&a&&aaaaaaaaaa&aaaaaaaaaaaaaaaaaaaaa&aaaaaaaa&aa&&&aaaaaa",
"aaaaaaaaa&&&aaaaaaaa&&&aaaaaaaaaaaaa&a&&&&aaaaaaaaa&aa&&,&&aaaaa",
"aaaaaa&&&&,&aaaaaaaa&,&&&&aaaaaaaaa&a&&,,&&aaaaaaaaaa&&,,,&aaaaa",
"aaaaaa&,,,,&aaaaaaaa&,,,,&&aaaaaaaaaa&,,r,&aaaaaaaaaa&,rr,&&aaaa",
"aaaaa&&,rr,&aaaaaaaa&&,rr,&aaaaaaaaaa&,r,&&aaaaaaaaaa&,,r,&aaaaa",
"aaaaa&,,r,&&aaaaaaaaa&,,r,&aaaaaaaaaa&&,&&aaaaaaaaaaa&&,,,&a&aaa",
"aaaaa&&&,&&aaaaaaaaaa&&,,,&aaaaaaaaaaa&&&aa&aaaaaaaaaa&&&&&aaaaa",
"aaaaaaa&&&aaaaaaaaaaaa&&&&aaaaaaaaaaaaaaaa&aaaaaaaaaaaaaa&aaaaaa",
"aaaaaaaaaaaaaaaaaaaaaaaaaaaaaaaaaaaaa&aaaaaaaaaaaaaaaa&a&aaaaaaa",
"aaaaaaaaaaaaaaaaaaaaaaaaaaaaaaaaaaaaaaaaaaaaaaaaaaaaaaaaaaaaaaaa",
"aaaaaaaaaaaaaaaaaaaaaaaaaaaaaaaaaaaaaaaaaaaaaaaaaaaaaaaaaaaaaaaa",
"aaaaaaaaaaaaaaaaaaaaaaaaaaaaaaaaaaaaaaaaaaaaaaaaaaaaaaaaaaaaaaaa",
"aaaaaaaaaaaaaaaaaaaaaaaaaaaaaaaaaaaaaaaaaaaaaaaaaaaaaaaaaaaaaaaa",
"aaaaaaaaaaaaaaaaaaaaaaaaaaaaaaaaaaaaaaaaaaaaaaaaaaaaaaaaaaaaaaaa",
"aaaaaaaaaaaaaaaaaaaaaa*aa*aaaaaaaaaaaaa*aaa*aaaaaaa**aaaaaaaaaaa",
"aaaa*aaa*aaaaaaaaaaaa***aaaaaaaaaaa**aaa*aaaa*aaaaaaaa**aaa*aaaa",
"aaaaaa*aa*aa*aaaaaa*a*aaaaaa*aaaaa*aaa****a*aaaaaaaa*******aaaaa",
"aaaaa******aaaaaaaaa*****a*aa*aaaaaa***ee**aaaaaaaa***eeee*aaaaa",
"aaa*****ee***aaaaaaa*eee****aaaaaaa***ette**a*aaaa*a*eette**aaaa",
"aa*a*eeette*aaaaaa*a*ettee**aaaaaa*a*eetpte*aaaaaaaa*etppte**aaa",
"aaaa*ettpte*a*aaaaa**etptte**aaaaa*a*etpte**aaaaaa*a*eetpte*aaaa",
"aaaa*etptte**aaaaaaa**etpte*aaaaaaaa*eetee*aaaaaaa*a**ettee*a*aa",
"aaaa**ette**aaaaaaaa**ettte*a*aaaa*a**eee***aaaaaaaaa*eee**aaaaa",
"aaa*a**ee**aa*aaaa*aa**eee**a*aaaaaaa******a*aaaaaaa*a****a*aaaa",
"aaaaaa*****aaaaaaaaa*a*****aaaaaaaaaaa*aaaaaaaaaaaaaaaaaa*a*aaaa",
"aaaaa*a*aaa**aaaaaaaaaaaa*aa*aaaaaaaaaaaaaa*aaaaaaaaaaa**aaaaaaa",
"aaaaaaaa*aaaaaaaaaaaaa*a*aaaaaaaaaaa*aaaa**aaaaaaaaaa*aaaaaaaaaa",
"aaaaaaaaaaaaaaaaaaaaaaaaaaaaaaaaaaaaaaaaaaaaaaaaaaaaaaaaaaaaaaaa",
"aaaaaaaaaaaaaaaaaaaaaaaaaaaaaaaaaaaaaaaaaaaaaaaaaaaaaaaaaaaaaaaa",
"a:000:aaaa:000:aaaaaaaaaaaaaaaaaaaaaaaaaaaaaaaaaaaaaaaaaaaaaaaaa",
":0qqq0:aa:0qqq0:aaaaaaaaaaaaaaaaaaaaaaaaaaaaaaaaaaaaaaaaaaaaaaaa",
"0q000:aaaa:000q0aaaaaaaaaaaaaaaaaaaaaaaaaaaaaaaaaaaaaaaaaaaaaaaa",
"0q0aaaaaaaaaa0q0aaaaaaaaaaaaaaaaaaaaaaaaaaaaaaaaaaaaaaaaaaaaaaaa",
"0q0aaaaaaaaaa0q0aaaaaaaaaaaaaaaaaaaaaaaaaaaaaaaaaaaaaaaaaaaaaaaa",
":0:aaaaaaaaaa:0:aaaaaaaaaaaaaaaaaaaaaaaaaaaaaaaaaaaaaaaaaaaaaaaa",
"a:aaaaaaaaaaaa:aaaaaaaaaaaaaaaaaaaaaaaaaaaaaaaaaaaaaaaaaaaaaaaaa",
"aaaaaaaaaaaaaaaaaaaaaaaaaaaaaaaaaaaaaaaaaaaaaaaaaaaaaaaaaaaaaaaa",
"aaaaaaaaaaaaaaaaaaaaaaaaaaaaaaaaaaaaaaaaaaaaaaaaaaaaaaaaaaaaaaaa",
"a:aaaaaaaaaaaa:aaaaaaaaaaaaaaaaaaaaaaaaaaaaaaaaaaaaaaaaaaaaaaaaa",
":0:aaaaaaaaaa:0:aaaaaaaaaaaaaaaaaaaaaaaaaaaaaaaaaaaaaaaaaaaaaaaa",
"0q0aaaaaaaaaa0q0aaaaaaaaaaaaaaaaaaaaaaaaaaaaaaaaaaaaaaaaaaaaaaaa",
"0q0aaaaaaaaaa0q0aaaaaaaaaaaaaaaaaaaaaaaaaaaaaaaaaaaaaaaaaaaaaaaa",
"0q000:aaaa:000q0aaaaaaaaaaaaaaaaaaaaaaaaaaaaaaaaaaaaaaaaaaaaaaaa",
":0qqq0:aa:0qqq0:aaaaaaaaaaaaaaaaaaaaaaaaaaaaaaaaaaaaaaaaaaaaaaaa",
"a:000:aaaa:000:aaaaaaaaaaaaaaaaaaaaaaaaaaaaaaaaaaaaaaaaaaaaaaaaa"
};
